<svg xmlns="http://www.w3.org/2000/svg" viewBox="0 0 100 100">
  <rect width="100" height="100" rx="20" fill="#2563eb"/>
  <path d="M50 20c-8.284 0-15 6.716-15 35v25c0 2.761 2.239 5 5 5h20c2.761 0 5-2.239 5-5V55c0-28.284-6.716-35-15-35z" fill="#ffffff" opacity="0.3"/>
  <path d="M30 30v45c0 2.761 2.239 5 5 5h30c2.761 0 5-2.239 5-5V30" stroke="#ffffff" stroke-width="4" fill="none" stroke-linecap="round"/>
  <path d="M25 30h50" stroke="#ffffff" stroke-width="4" stroke-linecap="round"/>
  <line x1="40" y1="45" x2="60" y2="45" stroke="#ffffff" stroke-width="3" stroke-linecap="round"/>
  <line x1="40" y1="55" x2="55" y2="55" stroke="#ffffff" stroke-width="3" stroke-linecap="round"/>
  <line x1="40" y1="65" x2="50" y2="65" stroke="#ffffff" stroke-width="3" stroke-linecap="round"/>
</svg>
